<svg width="51" height="48" viewBox="0 0 51 48" fill="none" xmlns="http://www.w3.org/2000/svg">
<path d="M34 48H28.3333V42.6667H34V48ZM28.3333 29.3333H22.6667V42.6667H28.3333V29.3333ZM51 24H45.3333V34.6667H51V24ZM45.3333 18.6667H39.6667V24H45.3333V18.6667ZM11.3333 24H5.66667V29.3333H11.3333V24ZM5.66667 18.6667H0V24H5.66667V18.6667ZM25.5 5.33333H31.1667V0H25.5V5.33333ZM4.25 4V12H12.75V4H4.25ZM17 16H0V0H17V16ZM4.25 36V44H12.75V36H4.25ZM17 48H0V32H17V48ZM38.25 4V12H46.75V4H38.25ZM51 16H34V0H51V16ZM45.3333 42.6667V34.6667H34V40H39.6667V48H51V42.6667H45.3333ZM39.6667 24H28.3333V29.3333H39.6667V24ZM28.3333 18.6667H11.3333V24H17V29.3333H22.6667V24H28.3333V18.6667ZM31.1667 16V10.6667H25.5V5.33333H19.8333V16H31.1667ZM10.625 6H6.375V10H10.625V6ZM10.625 38H6.375V42H10.625V38ZM44.625 6H40.375V10H44.625V6Z" fill="black"/>
</svg>
